<svg xmlns="http://www.w3.org/2000/svg" xmlns:xlink="http://www.w3.org/1999/xlink" width="1080" zoomAndPan="magnify" viewBox="0 0 810 675.000002" height="900" preserveAspectRatio="xMidYMid meet" version="1.2"><defs><clipPath id="a5842adbe3"><path d="M 0.597656 0 L 809.398438 0 L 809.398438 670.257812 L 0.597656 670.257812 Z M 0.597656 0 "/></clipPath></defs><g id="5eaf537588"><g clip-rule="nonzero" clip-path="url(#a5842adbe3)"><path style="fill:none;stroke-width:10;stroke-linecap:butt;stroke-linejoin:miter;stroke:#211c1d;stroke-opacity:1;stroke-miterlimit:10;" d="M 60004.962904 4.963655 L 4.934782 4.963655 L 4.934782 50005.032613 L 60004.962904 50005.032613 Z M 60004.962904 4.963655 " transform="matrix(0.0286029,0,0,-0.0286029,-454.250524,1176.056037)"/></g><path style=" stroke:none;fill-rule:evenodd;fill:#1299a3;fill-opacity:1;" d="M 357.5625 106.574219 C 319.269531 54.257812 263.191406 37.960938 221.050781 49.246094 C 68.703125 90.027344 159.636719 340.140625 239.371094 424.460938 C 290.238281 362.066406 316.671875 288.96875 296.808594 195.632812 C 333.199219 238.496094 354.410156 303.519531 365.511719 370.75 C 364.375 280.617188 333.023438 190.539062 252.109375 100.535156 C 413.195312 171.230469 489.867188 262.039062 518.847656 364.210938 C 580.519531 256.039062 618.703125 82.605469 494.078125 49.246094 C 451.9375 37.960938 395.859375 54.257812 357.5625 106.574219 Z M 806.617188 552.566406 C 596.261719 474.183594 316.808594 727.945312 16.101562 560.542969 C 344.058594 619.675781 620.171875 413.070312 806.617188 552.566406 Z M 586.308594 489.316406 C 596.425781 488.261719 606.597656 487.421875 616.792969 486.863281 C 659.335938 452.136719 685.511719 411.859375 700.230469 367.679688 C 462.953125 474.308594 235.328125 489.207031 16.96875 416.148438 C 66.625 470.574219 136.445312 513.464844 215.265625 551.210938 C 280.910156 545.691406 346.171875 533.460938 412.898438 519.808594 C 470.128906 508.105469 528.179688 495.355469 586.308594 489.316406 "/></g></svg>